<?xml version="1.0" encoding="UTF-8" standalone="no"?>
<svg
   xmlns:dc="http://purl.org/dc/elements/1.1/"
   xmlns:cc="http://creativecommons.org/ns#"
   xmlns:rdf="http://www.w3.org/1999/02/22-rdf-syntax-ns#"
   xmlns:svg="http://www.w3.org/2000/svg"
   xmlns="http://www.w3.org/2000/svg"
   xmlns:sodipodi="http://sodipodi.sourceforge.net/DTD/sodipodi-0.dtd"
   xmlns:inkscape="http://www.inkscape.org/namespaces/inkscape"
   version="1.0"
   width="700.000000pt"
   height="640.000000pt"
   viewBox="0 0 700.000000 640.000000"
   preserveAspectRatio="xMidYMid meet"
   id="svg3432"
   inkscape:version="0.91 r13725"
   sodipodi:docname="horus.svg">
  <defs
     id="defs3472" />
  <sodipodi:namedview
     pagecolor="#ffffff"
     bordercolor="#666666"
     borderopacity="1"
     objecttolerance="10"
     gridtolerance="10"
     guidetolerance="10"
     inkscape:pageopacity="0"
     inkscape:pageshadow="2"
     inkscape:window-width="1855"
     inkscape:window-height="1056"
     id="namedview3470"
     showgrid="false"
     inkscape:zoom="0.574375"
     inkscape:cx="963.93084"
     inkscape:cy="316.09122"
     inkscape:window-x="65"
     inkscape:window-y="24"
     inkscape:window-maximized="1"
     inkscape:current-layer="g3436" />
  <metadata
     id="metadata3434">
Created by potrace 1.14, written by Peter Selinger 2001-2017
<rdf:RDF>
  <cc:Work
     rdf:about="">
    <dc:format>image/svg+xml</dc:format>
    <dc:type
       rdf:resource="http://purl.org/dc/dcmitype/StillImage" />
  </cc:Work>
</rdf:RDF>
</metadata>
  <g
     transform="translate(0.000000,640.000000) scale(0.100000,-0.100000)"
     id="g3436"
     stroke="none"
     fill="#000000">
    <path
       d="m 2210,6182 c 0,-35 70,-223 121,-325 112,-224 616.0117,-787.7847 944.0117,-1121.7847 161.6641,-57.3284 162.6983,-63.4464 227.6143,-111.2951 L 3545,4717 c 128,271 263,443 347,443 36,0 48,-13 175,-183 320,-431 477,-723 459,-855 -3,-23 -2,-41 2,-39 4,3 88,48 187,102 99,54 207,114 240,133 121,71 372,242 428,292 78,70 77,97 -6,157 -54,38 -255,138 -263,130 -3,-3 0,-26 7,-51 17,-69 7,-183 -21,-242 -31,-62 -98,-130 -158,-157 -37,-17 -66,-22 -137,-22 -78,0 -97,4 -141,27 -28,15 -72,50 -97,78 -155,172 -80,469 131,515 17,3 32,10 32,15 0,4 -35,23 -77,40 -165,68 -332,143 -413,187 -291,156 -463,333 -511,523 l -17,65 -153,28 c -590,106 -1190,238 -1331,292 -14,5 -18,2 -18,-13 z"
       id="path3438"
       inkscape:connector-curvature="0"
       sodipodi:nodetypes="sscccscccscccscccscccsccccccs" />
    <path
       d="m 3846,5854 c -15,-39 -6,-155 16,-202 31,-66 124,-154 260,-245 145,-97 278,-163 433,-217 311,-108 814,-344 886,-414 64,-63 59,-114 -21,-196 -83,-85 -464,-325 -797,-501 -56,-29 -100,-56 -98,-60 3,-3 26,-2 52,2 26,5 161,12 298,15 286,8 558,-4 1021,-44 348,-31 352,-32 386,-108 39,-89 42,-306 7,-438 -6,-21 -8,-40 -5,-43 8,-8 89,61 124,104 87,111 124,242 126,443 2,277 -50,388 -313,665 -200,211 -365,346 -671,547 -254,167 -277,176 -931,357 -218,61 -430,121 -472,134 -141,45 -256,126 -273,192 -7,29 -19,32 -28,9 z M 5821,4621 c 222,-76 380,-193 456,-337 29,-55 53,-139 53,-185 0,-19 0,-19 -40,1 -117,60 -460.0166,102.7731 -766.0166,84.7731 -105,-5 -295.4115,15.6218 -297.4115,17.6218 153.1919,114.3309 490.1438,306.1389 534.4281,437.6051 3,0 30,-8 60,-19 z"
       id="path3440"
       inkscape:connector-curvature="0"
       sodipodi:nodetypes="cccccccccccccsccccccccccsccccc" />
    <path
       d="M1243 5536 c-11 -18 -47 -77 -78 -132 -257 -444 -348 -769 -348 -1234 0 -158 23 -426 39 -451 4 -7 354 169 354 179 0 4 -9 39 -19 78 -33 122 -44 252 -38 442 6 185 21 296 63 472 35 143 123 406 173 513 l41 88 -77 35 c-43 20 -80 37 -83 39 -3 2 -15 -11 -27 -29z"
       id="path3442" />
    <path
       d="M2388 5446 c-59 -18 -136 -47 -170 -64 -62 -31 -178 -116 -178 -131 0 -4 127 -68 283 -141 155 -73 365 -172 467 -220 168 -79 391 -158 421 -148 5 2 -106 118 -247 258 -141 140 -299 306 -351 368 -52 61 -100 112 -107 111 -6 0 -59 -15 -118 -33z"
       id="path3444" />
    <path
       d="M1441 5440 c-227 -514 -301 -1009 -215 -1445 9 -44 19 -85 23 -91 4 -8 74 15 211 68 274 105 458 162 663 203 93 19 171 36 172 37 2 2 12 26 23 55 88 231 293 415 550 493 40 12 72 23 70 25 -2 1 -120 57 -263 123 -143 66 -381 177 -530 247 -148 70 -288 135 -310 145 -22 10 -114 52 -205 94 -90 42 -167 76 -170 76 -3 0 -11 -14 -19 -30z"
       id="path3446" />
    <path
       d="m 3793,5065 c -44,-38 -123.8487,-165.6218 -195.8487,-299.6218 l -67.7814,-156.8154 c 68.3865,-66.5379 199.6974,-230.0001 235.0757,-329.4623 C 3923.7472,4105.4674 3984.1355,3888.4595 3980,3758 c -3.2001,-100.9493 -20,-155 -125,-328 -114,-189 -147,-265 -152,-355 -4,-58 -1,-76 16,-102 39,-62 187,-126 374,-162 l 98,-18 23,31 c 13,17 62,90 111,161 212,315 362,489 477,556 162,95 552,249 734,289 25,6 165,26 311,45 146,20 273,40 282,45 15,9 15,9 0,10 -9,0 -81,7 -160,15 -262,27 -611,54 -837,65 -263,13 -442,2 -584,-34 -51,-14 -94,-24 -95,-23 -1,1 3,38 8,82 13,95 4,201 -21,267 -51,136 -462,757 -521,789 -37,20 -84,10 -126,-26 z"
       id="path3448"
       inkscape:connector-curvature="0"
       sodipodi:nodetypes="ccccscccccccccccccccscccc" />
    <path
       d="M4702 4934 c-101 -50 -141 -139 -112 -246 33 -116 197 -183 315 -129 82 37 125 103 125 191 0 61 -17 105 -56 144 -70 70 -180 86 -272 40z"
       id="path3450" />
    <path
       d="M2878 4705 c-226 -51 -411 -211 -492 -427 -123 -325 25 -693 338 -843 116 -55 178 -70 296 -69 124 0 185 15 298 70 164 79 288 222 349 402 33 98 38 270 10 370 -62 229 -231 408 -452 478 -102 33 -249 41 -347 19z m357 -377 c171 -88 242 -296 158 -462 -25 -48 -104 -126 -158 -154 -44 -24 -61 -27 -150 -27 -89 0 -106 3 -150 27 -68 35 -128 97 -162 166 -24 49 -28 69 -28 142 0 74 4 93 29 144 34 69 88 126 148 157 68 35 88 39 178 35 68 -2 95 -8 135 -28z"
       id="path3452" />
    <path
       d="m 3770,4200 c -1,-3 -3,-41 -6,-85 -4.1513,-369.9493 -116,-507 -304,-708 l -72,-77 16,-62 c 20,-83 43,-232 51,-340 5,-58 14,-97 26,-118 27,-44 123,-102 296,-179 144,-64 149,-67 170,-111 14,-28 26,-80 32,-140 7,-63 17,-103 29,-120 20,-27 80,-62 94,-54 4,3 8,40 8,82 0,149 19,307 46,392 14,45 24,83 22,85 -2,1 -50,10 -107,20 -129,21 -239,49 -297,77 -120.5461,69.084 -119.6891,117.6891 -108.6891,246.6891 7,78 16.9243,103.7731 85.916,237.6135 92,140 133.7731,225.1596 176.9327,350.6218 33.293,123.4711 -35.9174,299.3248 -84.1596,393.0756 -33,62 -73,121 -74,110 z"
       id="path3454"
       inkscape:connector-curvature="0"
       sodipodi:nodetypes="ccccccccccccsccccccccc" />
    <path
       d="M2100 4131 c-313 -81 -577 -173 -802 -281 -46 -21 -48 -24 -48 -62 0 -62 28 -243 55 -348 47 -190 132 -383 216 -494 27 -36 54 -68 60 -72 7 -4 22 5 37 22 23 26 153 166 363 389 41 44 139 148 217 231 l142 152 -14 34 c-23 55 -49 282 -43 386 2 50 4 92 3 91 -1 0 -84 -22 -186 -48z"
       id="path3456" />
    <path
       d="M1027 3722 l-149 -77 6 -59 c15 -153 89 -442 159 -621 43 -110 189 -398 204 -403 7 -2 57 39 110 91 54 52 122 116 151 142 l53 49 -35 35 c-57 59 -131 192 -180 327 -51 137 -118 391 -138 517 -6 42 -16 77 -22 76 -6 0 -78 -35 -159 -77z"
       id="path3458" />
    <path
       d="m 2234,3477 c -450,-458 -614,-628 -614,-638 0,-6 37,-50 83,-97 182,-188 240,-235 407,-333 58,-34 123,-74 145,-89 51,-35 120,-70 138,-70 8,0 34,53 67,138 29,75 80,205 113,287 44,110 234.3885,676.6474 234.3885,676.6474 -6.3941,1.543 -9.3718,3.6432 -26.3417,6.8238 C 2698.0468,3376.4712 2585,3455 2474,3562 l -80,78 z"
       id="path3460"
       inkscape:connector-curvature="0"
       sodipodi:nodetypes="cscccsccccccc" />
    <path
       d="m 3020,3293 c -3.4176,-2.0785 5,-37 10,-73 5,-36 14,-175 20,-308 19,-438 -16,-1342 -91,-2387 l -21,-289 c 0,0 514.9755,-192.178144 590.5378,-146.344153 8,0 12.4622,191.344153 7.4622,327.344153 -4,104 -11,469 -16,813 -5,344 -14,690 -20,770 -31,428 -69,787 -119,1118 l -27.741,199.6333 -45.4942,-12.938 C 3277.7774,3294.0787 3044.5253,3275.6838 3020,3293 Z"
       id="path3462"
       inkscape:connector-curvature="0"
       sodipodi:nodetypes="cscccccsccccc" />
    <path
       d="M1543 2788 c-76 -114 -177 -412 -214 -634 l-13 -72 105 -109 c58 -59 152 -157 210 -218 57 -60 154 -162 214 -225 61 -63 153 -160 206 -215 52 -55 144 -151 205 -213 60 -62 132 -139 161 -170 29 -31 54 -54 57 -51 3 3 -15 302 -41 665 l-47 661 -123 62 c-260 132 -499 314 -658 504 l-40 48 -22 -33z"
       id="path3464" />
    <path
       d="m 3490,2702 c 0,-50 50,-755 54,-759 l 14.3466,-790.5786 c 0,0 493.0056,291.9483 528.5362,985.3849 -41.8734,36.5733 -32.1119,16.2616 -89.9668,60.5802 -30,22 -32.916,42.6135 -40.916,54.6135 -7,12 -16,59 -19,105 -6,101 -43,184 -96,220 -19,12 -83,38 -142,56 -124,40 -144,49 -181,84 l -28,26 z"
       id="path3466"
       inkscape:connector-curvature="0"
       sodipodi:nodetypes="sccccccccccs" />
    <path
       d="m 2976.1117,3297.8249 3.0832,-99.9987 c 0.7667,-24.8649 3.6824,-248.1229 0.3278,-381.1229 -10.6229,-438 -10.8331,-1637.9263 -119.0934,-2547.50645 -169.2549,155.97106 -266.9517,418.53009 -330.1779,579.70145 2.2364,104 -25.537,466.604 -51.3539,809.6452 -16.9019,224.5844 -36.2703,463.9621 -32.9156,543.9621 8.6269,6.6725 105.5794,215.1616 116.1242,252.7992 l 230.8323,663.5991 64.4278,214.2165 c 17.1117,-12.0042 103.5157,-34.947 118.7455,-35.2955 z"
       id="path3462-3"
       inkscape:connector-curvature="0"
       sodipodi:nodetypes="cscccsccccc" />
  </g>
</svg>
