<?xml version="1.0" encoding="UTF-8" standalone="no"?>
<!DOCTYPE svg PUBLIC "-//W3C//DTD SVG 1.1//EN" "http://www.w3.org/Graphics/SVG/1.1/DTD/svg11.dtd">
<svg version="1.1" xmlns="http://www.w3.org/2000/svg" xmlns:xlink="http://www.w3.org/1999/xlink" preserveAspectRatio="xMidYMid meet" viewBox="19 16.165767597873725 604 359.43437500000005" width="600" height="355.43"><defs><path d="M110.63 160.15L111.83 168.55L113.35 176.84L115.2 185.02L117.36 193.07L119.82 201L122.59 208.78L125.65 216.43L129 223.92L132.62 231.26L136.52 238.43L140.68 245.43L145.11 252.26L149.78 258.9L154.71 265.35L159.87 271.6L165.26 277.64L170.87 283.48L176.71 289.1L182.76 294.49L189.01 299.65L195.46 304.57L202.1 309.25L208.92 313.67L215.92 317.83L223.1 321.73L230.43 325.36L237.93 328.7L245.57 331.76L253.36 334.53L261.28 337L269.33 339.16L277.51 341L285.8 342.53L294.21 343.73L302.71 344.59L311.31 345.11L320 345.29L328.69 345.11L337.29 344.59L345.79 343.73L354.2 342.53L362.49 341L370.67 339.16L378.72 337L386.64 334.53L394.43 331.76L402.07 328.7L409.57 325.36L416.9 321.73L424.08 317.83L431.08 313.67L437.9 309.25L444.54 304.57L450.99 299.65L457.24 294.49L463.29 289.1L469.13 283.48L474.74 277.64L480.13 271.6L485.29 265.35L490.22 258.9L494.89 252.26L499.32 245.43L503.48 238.43L507.38 231.26L511 223.92L514.35 216.43L517.41 208.78L520.18 201L522.64 193.07L524.8 185.02L526.65 176.84L528.17 168.55L529.37 160.15L530.24 151.64L530.76 143.04L530.94 134.35L620 134.35L620 372.6L530.94 372.6L530.94 240.35L528.2 245.9L523.87 253.87L519.24 261.65L514.32 269.23L509.13 276.61L503.66 283.77L497.93 290.72L491.94 297.44L485.7 303.92L479.21 310.16L472.49 316.15L465.55 321.89L458.38 327.35L451 332.55L443.42 337.46L435.64 342.09L427.67 346.42L419.52 350.45L411.19 354.17L402.7 357.57L394.05 360.64L385.24 363.38L376.3 365.78L367.21 367.83L358 369.53L348.66 370.86L339.21 371.82L329.65 372.4L320 372.6L310.35 372.4L300.79 371.82L291.34 370.86L282 369.53L272.79 367.83L263.7 365.78L254.76 363.38L245.95 360.64L237.3 357.57L228.81 354.17L220.48 350.45L212.33 346.42L204.36 342.09L196.58 337.46L189 332.55L181.62 327.35L174.45 321.89L167.51 316.15L160.79 310.16L154.3 303.92L148.06 297.44L142.07 290.72L136.34 283.77L130.87 276.61L125.68 269.23L120.76 261.65L116.13 253.87L111.8 245.9L109.06 240.35L109.06 372.6L20 372.6L20 134.35L109.06 134.35L109.24 143.04L109.76 151.64L109.76 151.64L110.63 160.15ZM328.6 64.56L331.4 64.96L334.16 65.47L336.89 66.09L339.57 66.81L342.21 67.63L344.81 68.55L347.36 69.57L349.85 70.68L352.3 71.89L354.69 73.19L357.02 74.58L359.3 76.05L361.51 77.61L363.66 79.25L365.75 80.97L367.76 82.77L369.71 84.64L371.58 86.59L373.38 88.6L375.1 90.69L376.74 92.84L378.3 95.05L379.77 97.32L381.16 99.66L382.46 102.05L383.67 104.5L384.78 106.99L385.8 109.54L386.73 112.14L387.55 114.78L388.27 117.46L388.88 120.19L389.39 122.95L389.79 125.75L390.08 128.59L390.25 131.46L390.31 134.35L390.25 137.25L390.08 140.12L389.79 142.95L389.39 145.75L388.88 148.52L388.27 151.24L387.55 153.93L386.73 156.57L385.8 159.16L384.78 161.71L383.67 164.21L382.46 166.65L381.16 169.04L379.77 171.38L378.3 173.65L376.74 175.87L375.1 178.02L373.38 180.1L371.58 182.12L369.71 184.06L367.76 185.93L365.75 187.73L363.66 189.45L361.51 191.09L359.3 192.65L357.02 194.12L354.69 195.51L352.3 196.81L349.85 198.02L347.36 199.14L344.81 200.16L342.21 201.08L339.57 201.9L336.89 202.62L334.16 203.24L331.4 203.74L328.6 204.14L325.76 204.43L322.9 204.61L320 204.67L317.1 204.61L314.24 204.43L311.4 204.14L308.6 203.74L305.84 203.24L303.11 202.62L300.43 201.9L297.79 201.08L295.19 200.16L292.64 199.14L290.15 198.02L287.7 196.81L285.31 195.51L282.98 194.12L280.7 192.65L278.49 191.09L276.34 189.45L274.25 187.73L272.24 185.93L270.29 184.06L268.42 182.12L266.62 180.1L264.9 178.02L263.26 175.87L261.7 173.65L260.23 171.38L258.84 169.04L257.54 166.65L256.33 164.21L255.22 161.71L254.2 159.16L253.27 156.57L252.45 153.93L251.73 151.24L251.12 148.52L250.61 145.75L250.21 142.95L249.92 140.12L249.75 137.25L249.69 134.35L249.75 131.46L249.92 128.59L250.21 125.75L250.61 122.95L251.12 120.19L251.73 117.46L252.45 114.78L253.27 112.14L254.2 109.54L255.22 106.99L256.33 104.5L257.54 102.05L258.84 99.66L260.23 97.32L261.7 95.05L263.26 92.84L264.9 90.69L266.62 88.6L268.42 86.59L270.29 84.64L272.24 82.77L274.25 80.97L276.34 79.25L278.49 77.61L280.7 76.05L282.98 74.58L285.31 73.19L287.7 71.89L290.15 70.68L292.64 69.57L295.19 68.55L297.79 67.63L300.43 66.81L303.11 66.09L305.84 65.47L308.6 64.96L311.4 64.56L314.24 64.27L317.1 64.1L320 64.04L322.9 64.1L325.76 64.27L325.76 64.27L328.6 64.56ZM334.33 18.03L339 18.7L343.61 19.55L348.15 20.57L352.62 21.77L357.02 23.14L361.35 24.68L365.6 26.38L369.76 28.24L373.84 30.25L377.82 32.42L381.71 34.73L385.5 37.19L389.19 39.79L392.77 42.52L396.25 45.39L399.61 48.38L402.85 51.51L405.97 54.75L408.96 58.11L411.83 61.58L414.56 65.16L417.16 68.85L419.62 72.64L421.93 76.53L424.1 80.52L426.11 84.59L427.97 88.76L429.67 93L431.21 97.33L432.58 101.73L433.78 106.21L434.8 110.75L435.65 115.36L436.32 120.02L436.8 124.75L437.09 129.53L437.19 134.35L413.75 134.35L413.67 130.49L413.44 126.67L413.05 122.89L412.52 119.15L411.84 115.47L411.02 111.83L410.06 108.25L408.97 104.73L407.74 101.27L406.38 97.87L404.89 94.54L403.28 91.28L401.55 88.09L399.7 84.98L397.73 81.95L395.65 79L393.46 76.13L391.17 73.35L388.77 70.67L386.28 68.07L383.68 65.58L381 63.18L378.22 60.89L375.35 58.7L372.4 56.62L369.37 54.66L366.26 52.8L363.07 51.07L359.81 49.46L356.48 47.97L353.08 46.61L349.62 45.39L346.1 44.29L342.52 43.33L338.88 42.51L335.2 41.83L331.46 41.3L327.68 40.91L323.86 40.68L320 40.6L320 17.17L324.83 17.26L329.61 17.55L329.61 17.55L334.33 18.03Z" id="b15UmzBTDS"></path></defs><g><g><use xlink:href="#b15UmzBTDS" opacity="1" fill="#000000" fill-opacity="1"></use><g><use xlink:href="#b15UmzBTDS" opacity="1" fill-opacity="0" stroke="#000000" stroke-width="1" stroke-opacity="0"></use></g></g></g></svg>