<?xml version="1.0" encoding="UTF-8" standalone="no"?>
<!DOCTYPE svg PUBLIC "-//W3C//DTD SVG 1.1//EN" "http://www.w3.org/Graphics/SVG/1.1/DTD/svg11.dtd">
<svg version="1.1" xmlns="http://www.w3.org/2000/svg" xmlns:xlink="http://www.w3.org/1999/xlink" preserveAspectRatio="xMidYMid meet" viewBox="119 631.0165757875294 404 403.9999999999999" width="400" height="400"><defs><path d="M336.39 632.68L344.46 633.5L352.42 634.64L360.29 636.08L368.04 637.83L375.67 639.88L383.19 642.22L390.57 644.84L397.82 647.74L404.92 650.92L411.88 654.35L418.68 658.05L425.32 662L431.79 666.19L438.09 670.62L444.2 675.29L450.13 680.18L455.86 685.29L461.39 690.62L466.72 696.15L471.83 701.89L476.72 707.81L481.39 713.93L485.82 720.22L490.02 726.69L493.97 733.33L497.66 740.13L501.1 747.09L504.27 754.2L507.17 761.44L509.8 768.83L512.14 776.34L514.18 783.98L515.93 791.73L517.38 799.59L518.52 807.56L519.34 815.62L519.83 823.78L520 832.02L519.83 840.26L519.34 848.41L518.52 856.47L517.38 864.44L515.93 872.3L514.18 880.05L512.14 887.69L509.8 895.2L507.17 902.59L504.27 909.83L501.1 916.94L497.66 923.9L493.97 930.7L490.02 937.33L485.82 943.81L481.39 950.1L476.72 956.22L471.83 962.14L466.72 967.88L461.39 973.41L455.86 978.74L450.13 983.85L444.2 988.74L438.09 993.41L431.79 997.84L425.32 1002.03L418.68 1005.98L411.88 1009.68L404.92 1013.12L397.82 1016.29L390.57 1019.19L383.19 1021.81L375.67 1024.15L368.04 1026.2L360.29 1027.95L352.42 1029.4L344.46 1030.53L336.39 1031.35L328.24 1031.85L320 1032.02L311.76 1031.85L303.61 1031.35L295.54 1030.53L287.58 1029.4L279.71 1027.95L271.96 1026.2L264.33 1024.15L256.81 1021.81L249.43 1019.19L242.18 1016.29L235.08 1013.12L228.12 1009.68L221.32 1005.98L214.68 1002.03L208.21 997.84L201.91 993.41L195.8 988.74L189.87 983.85L184.14 978.74L178.61 973.41L178.61 973.41L203.35 948.67L203.35 948.67L207.92 953.06L212.64 957.28L217.53 961.31L222.58 965.16L227.77 968.82L233.11 972.28L238.59 975.54L244.2 978.59L249.94 981.42L255.8 984.04L261.78 986.43L267.87 988.6L274.07 990.53L280.37 992.22L286.76 993.66L293.25 994.86L299.82 995.79L306.48 996.47L313.2 996.88L320 997.02L326.8 996.88L333.52 996.47L340.18 995.79L346.75 994.86L353.24 993.66L359.63 992.22L365.93 990.53L372.13 988.6L378.22 986.43L384.2 984.04L390.06 981.42L395.8 978.59L401.41 975.54L406.89 972.28L412.23 968.82L417.42 965.16L422.47 961.31L427.36 957.28L432.08 953.06L436.65 948.67L436.65 948.67L411.91 923.92L411.91 923.92L408.31 927.38L404.58 930.71L400.73 933.89L396.76 936.92L392.66 939.8L388.46 942.53L384.14 945.09L379.72 947.5L375.2 949.73L370.58 951.79L365.87 953.68L361.07 955.38L356.19 956.9L351.22 958.24L346.19 959.37L341.07 960.31L335.9 961.05L330.66 961.59L325.36 961.91L320 962.02L314.64 961.91L309.34 961.59L304.1 961.05L298.93 960.31L293.81 959.37L288.78 958.24L283.81 956.9L278.93 955.38L274.13 953.68L269.42 951.79L264.8 949.73L260.28 947.5L255.86 945.09L251.54 942.53L247.34 939.8L243.24 936.92L239.27 933.89L235.42 930.71L231.69 927.38L228.09 923.92L224.63 920.33L221.31 916.6L218.13 912.75L215.1 908.77L212.21 904.68L209.49 900.47L206.92 896.16L204.52 891.74L202.29 887.22L200.22 882.6L198.34 877.89L196.63 873.09L195.11 868.2L193.78 863.24L192.64 858.2L191.7 853.09L190.96 847.91L190.43 842.67L190.11 837.37L190 832.02L190.11 826.66L190.43 821.36L190.96 816.12L191.7 810.94L192.64 805.83L193.78 800.79L195.11 795.83L196.63 790.94L198.34 786.14L200.22 781.43L202.29 776.81L204.52 772.29L206.92 767.87L209.49 763.56L212.21 759.35L215.1 755.26L218.13 751.28L221.31 747.43L224.63 743.7L228.09 740.11L231.69 736.65L235.42 733.32L239.27 730.14L243.24 727.11L247.34 724.23L251.54 721.5L255.86 718.94L260.28 716.54L264.8 714.3L269.42 712.24L274.13 710.35L278.93 708.65L283.81 707.13L288.78 705.8L293.81 704.66L298.93 703.72L304.1 702.98L309.34 702.45L314.64 702.13L320 702.02L325.36 702.13L330.66 702.45L335.9 702.98L341.07 703.72L346.19 704.66L351.22 705.8L356.19 707.13L361.07 708.65L365.87 710.35L370.58 712.24L375.2 714.3L379.72 716.54L384.14 718.94L388.46 721.5L392.66 724.23L396.76 727.11L400.73 730.14L404.58 733.32L408.31 736.65L411.91 740.11L411.91 740.11L387.16 764.86L387.16 764.85L384.53 762.32L381.81 759.9L379 757.57L376.09 755.36L373.1 753.25L370.03 751.26L366.87 749.38L363.64 747.63L360.34 745.99L356.96 744.49L353.52 743.11L350.01 741.86L346.45 740.75L342.82 739.78L339.14 738.95L335.4 738.26L331.62 737.72L327.79 737.33L323.91 737.1L320 737.02L316.09 737.1L312.21 737.33L308.38 737.72L304.6 738.26L300.86 738.95L297.18 739.78L293.55 740.75L289.99 741.86L286.48 743.11L283.04 744.49L279.66 745.99L276.36 747.63L273.13 749.38L269.97 751.26L266.9 753.25L263.91 755.36L261 757.57L258.19 759.9L255.47 762.32L252.84 764.85L250.31 767.48L247.88 770.2L245.56 773.02L243.34 775.92L241.23 778.91L239.24 781.99L237.37 785.14L235.61 788.37L233.98 791.68L232.47 795.05L231.09 798.49L229.85 802L228.74 805.57L227.76 809.2L226.93 812.88L226.24 816.61L225.7 820.4L225.32 824.23L225.08 828.1L225 832.02L225.08 835.93L225.32 839.8L225.7 843.63L226.24 847.42L226.93 851.15L227.76 854.83L228.74 858.46L229.85 862.03L231.09 865.54L232.47 868.98L233.98 872.35L235.61 875.66L237.37 878.89L239.24 882.04L241.23 885.12L243.34 888.11L245.56 891.01L247.88 893.83L250.31 896.55L252.84 899.18L255.47 901.71L258.19 904.14L261 906.46L263.91 908.68L266.9 910.78L269.97 912.77L273.13 914.65L276.36 916.41L279.66 918.04L283.04 919.55L286.48 920.92L289.99 922.17L293.55 923.28L297.18 924.25L300.86 925.09L304.6 925.77L308.38 926.31L312.21 926.7L316.09 926.94L320 927.02L323.91 926.94L327.79 926.7L331.62 926.31L335.4 925.77L339.14 925.09L342.82 924.25L346.45 923.28L350.01 922.17L353.52 920.92L356.96 919.55L360.34 918.04L363.64 916.41L366.87 914.65L370.03 912.77L373.1 910.78L376.09 908.68L377.83 907.35L377.83 908.09L381.66 904.26L381.81 904.14L384.53 901.71L387.16 899.18L389.69 896.55L391.96 894.01L391.96 893.94L482.5 803.4L481.65 798.78L480.2 792.38L478.51 786.08L476.58 779.88L474.42 773.79L472.02 767.81L469.41 761.95L466.57 756.21L463.52 750.6L460.26 745.13L456.8 739.79L453.15 734.59L449.3 729.55L445.26 724.66L441.04 719.93L436.65 715.36L432.08 710.97L427.36 706.75L422.47 702.72L417.42 698.87L412.23 695.21L406.89 691.75L401.41 688.49L395.8 685.44L390.06 682.61L384.2 679.99L378.22 677.6L372.13 675.43L365.93 673.5L359.63 671.82L353.24 670.37L346.75 669.18L340.18 668.24L333.52 667.56L326.8 667.15L320 667.02L313.2 667.15L306.48 667.56L299.82 668.24L293.25 669.18L286.76 670.37L280.37 671.82L274.07 673.5L267.87 675.43L261.78 677.6L255.8 679.99L249.94 682.61L244.2 685.44L238.59 688.49L233.11 691.75L227.77 695.21L222.58 698.87L217.53 702.72L212.64 706.75L207.92 710.97L203.35 715.36L203.35 715.37L178.6 690.62L178.61 690.62L184.14 685.29L189.87 680.18L195.8 675.29L201.91 670.62L208.21 666.19L214.68 662L221.32 658.05L228.12 654.35L235.08 650.92L242.18 647.74L249.43 644.84L256.81 642.22L264.33 639.88L271.96 637.83L279.71 636.08L287.58 634.64L295.54 633.5L303.61 632.68L311.76 632.18L320 632.02L328.24 632.18L336.39 632.68ZM179.74 745.13L176.48 750.6L173.43 756.21L170.59 761.95L167.98 767.81L165.58 773.79L163.42 779.88L161.49 786.08L159.8 792.38L158.35 798.78L157.16 805.27L156.22 811.84L155.55 818.49L155.14 825.22L155 832.02L155.14 838.81L155.55 845.54L156.22 852.19L157.16 858.77L158.35 865.25L159.8 871.65L161.49 877.95L163.42 884.15L165.58 890.24L167.98 896.22L170.59 902.08L173.43 907.82L176.48 913.43L179.74 918.9L182.63 923.38L157.49 948.52L154.18 943.81L149.98 937.33L146.03 930.7L142.34 923.9L138.9 916.94L135.73 909.83L132.83 902.59L130.2 895.2L127.86 887.69L125.82 880.05L124.07 872.3L122.62 864.44L121.48 856.47L120.66 848.41L120.17 840.26L120 832.02L120.17 823.78L120.66 815.62L121.48 807.56L122.62 799.59L124.07 791.73L125.82 783.98L127.86 776.34L130.2 768.83L132.83 761.44L135.73 754.2L138.9 747.09L142.34 740.13L146.03 733.33L149.98 726.69L154.18 720.22L157.49 715.52L182.63 740.66L179.74 745.13ZM457.37 923.38L460.26 918.9L463.52 913.43L466.57 907.82L469.41 902.08L472.02 896.22L474.42 890.24L476.58 884.15L478.51 877.95L480.2 871.65L481.65 865.25L482.84 858.77L483.78 852.19L484.24 847.67L432.95 898.96L457.37 923.38ZM324.92 772.22L327.34 772.46L329.73 772.8L332.09 773.24L334.41 773.76L336.7 774.38L338.96 775.08L341.17 775.86L343.35 776.73L345.48 777.69L347.56 778.72L349.6 779.83L351.6 781.01L353.54 782.27L355.43 783.6L357.26 785L359.04 786.47L360.76 788L362.42 789.6L364.02 791.26L365.55 792.98L367.02 794.76L368.42 796.59L369.75 798.48L371.01 800.42L372.19 802.41L373.3 804.45L374.33 806.54L375.28 808.67L376.15 810.84L376.94 813.06L377.64 815.31L378.25 817.6L378.78 819.93L379.21 822.29L379.56 824.68L379.8 827.1L379.95 829.54L380 832.02L379.95 834.49L379.8 836.93L379.56 839.35L379.21 841.74L378.78 844.1L378.25 846.43L377.64 848.72L376.94 850.97L376.15 853.19L375.28 855.36L374.33 857.49L373.3 859.58L372.19 861.62L371.01 863.61L369.75 865.55L368.42 867.44L367.02 869.28L365.55 871.05L364.02 872.77L362.42 874.43L360.76 876.03L359.04 877.57L357.26 879.03L355.43 880.43L353.54 881.76L351.6 883.02L349.6 884.21L347.56 885.32L345.48 886.35L343.35 887.3L341.17 888.17L338.96 888.96L336.7 889.66L334.41 890.27L332.09 890.8L329.73 891.23L327.34 891.57L324.92 891.82L322.47 891.97L320 892.02L317.53 891.97L315.08 891.82L312.66 891.57L310.27 891.23L307.91 890.8L305.59 890.27L303.3 889.66L301.04 888.96L298.83 888.17L296.65 887.3L294.52 886.35L292.44 885.32L290.4 884.21L288.4 883.02L286.46 881.76L284.57 880.43L282.74 879.03L280.96 877.57L279.24 876.03L277.58 874.43L275.98 872.77L274.45 871.05L272.98 869.28L271.58 867.44L270.25 865.55L268.99 863.61L267.81 861.62L266.7 859.58L265.67 857.49L264.72 855.36L263.85 853.19L263.06 850.97L262.36 848.72L261.75 846.43L261.22 844.1L260.79 841.74L260.44 839.35L260.2 836.93L260.05 834.49L260 832.02L260.05 829.54L260.2 827.1L260.44 824.68L260.79 822.29L261.22 819.93L261.75 817.6L262.36 815.31L263.06 813.06L263.85 810.84L264.72 808.67L265.67 806.54L266.7 804.45L267.81 802.41L268.99 800.42L270.25 798.48L271.58 796.59L272.98 794.76L274.45 792.98L275.98 791.26L277.58 789.6L279.24 788L280.96 786.47L282.74 785L284.57 783.6L286.46 782.27L288.4 781.01L290.4 779.83L292.44 778.72L294.52 777.69L296.65 776.73L298.83 775.86L301.04 775.08L303.3 774.38L305.59 773.76L307.91 773.24L310.27 772.8L312.66 772.46L315.08 772.22L317.53 772.07L320 772.02L322.47 772.07L324.92 772.22Z" id="l9cgoxOpq"></path></defs><g><g><use xlink:href="#l9cgoxOpq" opacity="1" fill="#000000" fill-opacity="1"></use><g><use xlink:href="#l9cgoxOpq" opacity="1" fill-opacity="0" stroke="#000000" stroke-width="1" stroke-opacity="0"></use></g></g></g></svg>